<svg width="50" height="50" viewBox="0 0 50 50" fill="none" xmlns="http://www.w3.org/2000/svg">
<path d="M24.7193 35.9551C30.9246 35.9551 35.9551 30.9246 35.9551 24.7192C35.9551 18.5139 30.9246 13.4834 24.7193 13.4834C18.5139 13.4834 13.4834 18.5139 13.4834 24.7192C13.4834 30.9246 18.5139 35.9551 24.7193 35.9551Z" fill="#F7F3EE" fill-opacity="0.75"/>
<path d="M24.7189 8.23963C25.3148 8.2396 25.8864 8.00284 26.3078 7.58142C26.7292 7.16 26.966 6.58843 26.966 5.99246V2.24717C26.966 1.65118 26.7293 1.07961 26.3078 0.658181C25.8864 0.236755 25.3148 0 24.7189 0C24.1229 0 23.5513 0.236755 23.1299 0.658181C22.7084 1.07961 22.4717 1.65118 22.4717 2.24717V5.99246C22.4717 6.58843 22.7085 7.15999 23.1299 7.58141C23.5513 8.00283 24.1229 8.2396 24.7189 8.23963Z" fill="#F7F3EE" fill-opacity="0.75"/>
<path d="M9.8882 13.0663C10.0969 13.2749 10.3446 13.4405 10.6172 13.5534C10.8898 13.6663 11.182 13.7244 11.4771 13.7244C11.7721 13.7244 12.0643 13.6663 12.3369 13.5534C12.6096 13.4405 12.8573 13.2749 13.0659 13.0663C13.2746 12.8576 13.4401 12.6099 13.553 12.3373C13.6659 12.0647 13.724 11.7725 13.724 11.4774C13.724 11.1824 13.6659 10.8902 13.553 10.6176C13.4401 10.3449 13.2746 10.0972 13.0659 9.88858L10.4178 7.24061C9.99641 6.81923 9.42488 6.58251 8.82895 6.58252C8.23302 6.58253 7.66151 6.81927 7.24013 7.24066C6.81875 7.66205 6.58202 8.23357 6.58203 8.8295C6.58204 9.42543 6.81878 9.99695 7.24017 10.4183L9.8882 13.0663Z" fill="#F7F3EE" fill-opacity="0.75"/>
<path d="M8.23963 24.7189C8.23959 24.1229 8.00283 23.5513 7.58141 23.1299C7.15999 22.7085 6.58843 22.4717 5.99246 22.4717H2.24717C1.65118 22.4717 1.07961 22.7084 0.658181 23.1299C0.236755 23.5513 0 24.1229 0 24.7189C0 25.3148 0.236755 25.8864 0.658181 26.3078C1.07961 26.7293 1.65118 26.966 2.24717 26.966H5.99246C6.58843 26.966 7.15999 26.7292 7.58141 26.3078C8.00284 25.8864 8.2396 25.3148 8.23963 24.7189Z" fill="#F7F3EE" fill-opacity="0.75"/>
<path d="M9.88819 36.3715L7.24016 39.0202C7.03151 39.2289 6.86599 39.4766 6.75307 39.7492C6.64015 40.0218 6.58203 40.314 6.58203 40.6091C6.58203 40.9042 6.64015 41.1964 6.75307 41.469C6.86599 41.7416 7.03151 41.9893 7.24016 42.198C7.66155 42.6193 8.23308 42.8561 8.82901 42.8561C9.12409 42.8561 9.41628 42.798 9.6889 42.685C9.96151 42.5721 10.2092 42.4066 10.4179 42.198L13.0659 39.5492C13.2746 39.3405 13.4401 39.0928 13.553 38.8202C13.6659 38.5476 13.724 38.2554 13.724 37.9604C13.724 37.6653 13.6659 37.3731 13.553 37.1005C13.4401 36.8279 13.2746 36.5802 13.0659 36.3715C12.8573 36.1629 12.6096 35.9974 12.337 35.8844C12.0644 35.7715 11.7722 35.7134 11.4771 35.7134C11.182 35.7134 10.8899 35.7715 10.6172 35.8844C10.3446 35.9973 10.0968 36.1628 9.88819 36.3715Z" fill="#F7F3EE" fill-opacity="0.75"/>
<path d="M24.7189 41.1982C24.1229 41.1983 23.5513 41.435 23.1299 41.8565C22.7085 42.2779 22.4717 42.8494 22.4717 43.4454V47.1907C22.4717 47.7867 22.7084 48.3583 23.1299 48.7797C23.5513 49.2011 24.1229 49.4379 24.7189 49.4379C25.3148 49.4379 25.8864 49.2011 26.3078 48.7797C26.7293 48.3583 26.966 47.7867 26.966 47.1907V43.4454C26.966 42.8494 26.7292 42.2779 26.3078 41.8565C25.8864 41.435 25.3148 41.1983 24.7189 41.1982Z" fill="#F7F3EE" fill-opacity="0.75"/>
<path d="M39.5487 36.3715C39.3401 36.1629 39.0924 35.9973 38.8198 35.8844C38.5471 35.7715 38.255 35.7134 37.9599 35.7134C37.6648 35.7134 37.3726 35.7715 37.1 35.8844C36.8274 35.9973 36.5797 36.1629 36.371 36.3715C36.1624 36.5802 35.9969 36.8279 35.8839 37.1005C35.771 37.3731 35.7129 37.6653 35.7129 37.9604C35.7129 38.2554 35.771 38.5476 35.8839 38.8202C35.9969 39.0929 36.1624 39.3406 36.371 39.5492L39.019 42.198C39.2277 42.4066 39.4754 42.5722 39.748 42.6851C40.0206 42.798 40.3128 42.8561 40.6079 42.8561C40.903 42.8561 41.1952 42.798 41.4678 42.6851C41.7404 42.5722 41.9881 42.4066 42.1968 42.198C42.4054 41.9893 42.5709 41.7416 42.6838 41.469C42.7968 41.1964 42.8549 40.9042 42.8549 40.6091C42.8549 40.3141 42.7968 40.0219 42.6838 39.7492C42.5709 39.4766 42.4054 39.2289 42.1968 39.0203L39.5487 36.3715Z" fill="#F7F3EE" fill-opacity="0.75"/>
<path d="M49.4379 24.7189C49.4378 24.1229 49.2011 23.5513 48.7797 23.1299C48.3582 22.7085 47.7867 22.4717 47.1907 22.4717H43.4454C42.8494 22.4717 42.2778 22.7084 41.8564 23.1299C41.435 23.5513 41.1982 24.1229 41.1982 24.7189C41.1982 25.3148 41.435 25.8864 41.8564 26.3078C42.2778 26.7293 42.8494 26.966 43.4454 26.966H47.1907C47.7867 26.966 48.3582 26.7292 48.7797 26.3078C49.2011 25.8864 49.4378 25.3148 49.4379 24.7189Z" fill="#F7F3EE" fill-opacity="0.75"/>
<path d="M37.9607 13.7247C38.2558 13.7251 38.5482 13.6671 38.8208 13.5541C39.0935 13.4412 39.3411 13.2754 39.5495 13.0664L42.1976 10.4184C42.619 9.99697 42.8557 9.42544 42.8557 8.8295C42.8557 8.23357 42.619 7.66204 42.1976 7.24065C41.7762 6.81925 41.2047 6.58252 40.6087 6.58252C40.0128 6.58252 39.4413 6.81925 39.0199 7.24065L36.3719 9.88875C36.0577 10.203 35.8437 10.6034 35.757 11.0393C35.6703 11.4751 35.7149 11.9269 35.8849 12.3375C36.055 12.7481 36.343 13.099 36.7124 13.3459C37.0819 13.5929 37.5163 13.7247 37.9607 13.7247Z" fill="#F7F3EE" fill-opacity="0.75"/>
</svg>
