<svg width="36" height="37" viewBox="0 0 36 37" fill="none" xmlns="http://www.w3.org/2000/svg">
<path d="M33.1053 21.6802C32.1255 22.3376 31.0663 22.8607 29.9546 23.2361C25.8272 24.6459 21.1558 23.8746 17.7385 21.1087C16.8975 20.4182 16.1339 19.6335 15.4621 18.7692C12.7709 15.2567 12.0205 10.4556 13.3921 6.213C13.7573 5.07054 14.2664 3.98211 14.9064 2.97541C15.1261 2.64577 15.2392 2.25337 15.2296 1.85392C15.2199 1.45448 15.0881 1.06831 14.8528 0.750271C14.6174 0.432229 14.2906 0.198487 13.9186 0.0822375C13.5467 -0.0340119 13.1485 -0.0268561 12.7808 0.102693C9.77813 1.09079 7.0731 2.85581 4.92552 5.22822C2.77794 7.60062 1.25995 10.5007 0.517341 13.6499C-0.225267 16.7992 -0.167545 20.0918 0.68497 23.2115C1.53748 26.3312 3.15615 29.1732 5.3855 31.4645C7.61484 33.7559 10.38 35.4196 13.4153 36.2959C16.4507 37.1721 19.6542 37.2316 22.7184 36.4684C25.7825 35.7052 28.6042 34.1451 30.9126 31.938C33.2209 29.7308 34.9383 26.9506 35.8997 23.8646C36.026 23.4866 36.0332 23.0774 35.9202 22.6951C35.8072 22.3127 35.5798 21.9767 35.2704 21.7348C34.9609 21.4929 34.5851 21.3574 34.1964 21.3476C33.8078 21.3378 33.426 21.4542 33.1053 21.6802Z" fill="#543126"/>
</svg>
