<svg id="РЎР_РѕР_1" data-name="РЎР»РѕР№ 1" xmlns="http://www.w3.org/2000/svg" viewBox="0 0 16.15 17.27"><defs><style>.cls-1{stroke:#000;stroke-miterlimit:22.93;stroke-width:0.4px;fill-rule:evenodd;}</style></defs><path class="cls-1" d="M75.79,75h3.94a.28.28,0,0,1,.28.28.29.29,0,0,1-.28.28H75.79a.28.28,0,0,1-.28-.28.27.27,0,0,1,.28-.28Zm-3.93,0a.89.89,0,0,0-.85.81L69.89,87.07a.82.82,0,0,0,.84.87H84.79a.82.82,0,0,0,.84-.87L84.5,75.82a.88.88,0,0,0-.84-.81H82a.28.28,0,0,0,0,.56h1.69c.16,0,.26.11.28.31l1.13,11.24a.27.27,0,0,1-.28.26H70.73a.27.27,0,0,1-.28-.26l1.12-11.24c0-.2.13-.31.29-.31h1.68a.28.28,0,1,0,0-.56Zm5.9-3.94a3.38,3.38,0,0,0-3.37,3.37V77A.28.28,0,1,0,75,77V74.44a2.81,2.81,0,1,1,5.62,0V77a.28.28,0,1,0,.56,0V74.44A3.38,3.38,0,0,0,77.76,71.07Z" transform="translate(-69.68 -70.87)"/></svg>