<svg id="РЎР_РѕР_1" data-name="РЎР»РѕР№ 1" xmlns="http://www.w3.org/2000/svg" viewBox="0 0 16.94 16.66"><defs><style>.cls-1{stroke:#000;stroke-miterlimit:22.93;stroke-width:0.4px;fill-rule:evenodd;}</style></defs><path class="cls-1" d="M58.29,56.87a4.15,4.15,0,1,1-3.9,4.38,4.15,4.15,0,0,1,3.9-4.38Zm-.22-.67a4.84,4.84,0,1,0,5.28,4.35,4.83,4.83,0,0,0-5.28-4.35ZM51,72.43h-.68a8.16,8.16,0,0,1,.56-2.4,8.5,8.5,0,0,1,1.08-1.91A8.08,8.08,0,0,1,54.28,66a5.33,5.33,0,0,1,1-.5l.69.44s-.85.37-1,.45a8.84,8.84,0,0,0-.89.55,7.58,7.58,0,0,0-2.93,4.27c-.11.42-.14.79-.22,1.22Zm15.83,0h-.67s-.19-1.07-.22-1.21a8.56,8.56,0,0,0-.37-1.08A7.39,7.39,0,0,0,63,66.94a7.9,7.9,0,0,0-.89-.56l-1-.44c.17-.11.34-.19.5-.3s.18-.18.51,0a8.32,8.32,0,0,1,4.55,5.75c0,.18.08.5.12.64Z" transform="translate(-50.07 -55.97)"/></svg>