<svg id="Слой_1" data-name="Слой 1" xmlns="http://www.w3.org/2000/svg" viewBox="0 0 412 535.31"><defs><style>.cls-1{fill:#030405}</style></defs><path class="cls-1" d="M300,691.25c-113.59,0-206-120.07-206-267.65s92.41-267.66,206-267.66S506,276,506,423.6,413.59,691.25,300,691.25Zm0-531.64c-111.57,0-202.33,118.42-202.33,264s90.76,264,202.33,264,202.33-118.43,202.33-264S411.57,159.61,300,159.61Z" transform="translate(-94 -155.94)"/><path class="cls-1" d="M399.16,467.52c-3.61,27.44-18.77,45.85-37.91,45.85H328c-26.72,0-31.41-3.61-31.41-23.82V326c0-20.57,4.69-24.54,31.41-24.54H353c20.94,0,35.38,15.16,35.38,40.07,0,1.44,4,1.44,4,0l-.72-43.68c0-2.17-.72-3.25-3.25-3.25h-143c-1.09,0-1.09,4.33,0,4.33,27.43,0,32.13,4.33,32.13,24.91V491c0,20.94-4.7,24.91-32.13,24.91-1.09,0-1.09,4.33,0,4.33h149.1c4.33,0,5.77-1.44,5.77-5.41a379.27,379.27,0,0,1,3.25-46.94C403.49,466.44,399.16,466.08,399.16,467.52Z" transform="translate(-94 -155.94)"/><path class="cls-1" d="M358.75,397.71c3.69,2.53,4.36,3.6,4.7,8.66l3.69,37.91c0,1.08-3.36,2.17-3.69.36-9.06-39-39.26-52.71-77.52-52.71-53,0-88.25,38.63-88.25,97.11C197.68,558.36,244,614,297.34,614c31.88,0,57.38-17.32,69.13-57,.33-1.8,4-.72,4,.37l-4.69,38.63c-1,5.77-1.35,6.49-5.37,8.3a147.16,147.16,0,0,1-64.1,14.08c-85.23,0-119.46-63.54-119.46-119.5,0-68.23,59.06-114.44,122.15-114.44C320.16,384.35,345,389,358.75,397.71Z" transform="translate(-94 -155.94)"/><path class="cls-1" d="M285.94,278.12c6.56-19.28,10.52-47.67,15-64.65,1.31-8.1,26.41-2.6,22.7,2.45-15.67,23.42-25.26,42.55-34.5,63.43C288.41,281.27,285.45,279.4,285.94,278.12Z" transform="translate(-94 -155.94)"/></svg>